# xmcd
#
# Track frame offsets:
#	150
#	18075
#	33675
#	51600
#	69825
#	94087
#	114712
#	127650
#	160800
#	184725
#	198150
#	220650
#	236550
#	252337
#	263850
#
# Disc length: 3826 seconds
#
# Revision: 0
# Processed by: cddbd v1.4PL0 Copyright (c) Steve Scherf et al.
# Submitted via: dBpowerAMP V4.0
#
DISCID=cb0ef00f
DTITLE=Rick Russell - It's About The Blues
DYEAR=1994
DGENRE=Blues
TTITLE0=The Big Boy
TTITLE1=Sweet Tooth Mama
TTITLE2=Basic Black
TTITLE3=Crawling Over Broken Glass
TTITLE4=Uptown Woman
TTITLE5=One Night of Pleasure
TTITLE6=Blues For J
TTITLE7=What You Did Ain't Right
TTITLE8=Mary Lou
TTITLE9=Buzz Me
TTITLE10=Sleeping Alone
TTITLE11=Road House Jump
TTITLE12=Transportation
TTITLE13=Well Alright
TTITLE14=Looking for an Angel
EXTD=
EXTT0=
EXTT1=
EXTT2=
EXTT3=
EXTT4=
EXTT5=
EXTT6=
EXTT7=
EXTT8=
EXTT9=
EXTT10=
EXTT11=
EXTT12=
EXTT13=
EXTT14=
PLAYORDER=
